<mxfile host="app.diagrams.net" agent="Mozilla/5.0 (Windows NT 10.0; Win64; x64) AppleWebKit/537.36 (KHTML, like Gecko) Chrome/130.0.0.0 Safari/537.36" version="24.8.6">
  <diagram name="Page-1" id="2YBvvXClWsGukQMizWep">
    <mxGraphModel dx="1195" dy="615" grid="1" gridSize="10" guides="1" tooltips="1" connect="1" arrows="1" fold="1" page="1" pageScale="1" pageWidth="850" pageHeight="1100" math="0" shadow="0">
      <root>
        <mxCell id="0" />
        <mxCell id="1" parent="0" />
        <mxCell id="aM9ryv3xv72pqoxQDRHE-1" value="UI" style="shape=umlLifeline;perimeter=lifelinePerimeter;whiteSpace=wrap;html=1;container=0;dropTarget=0;collapsible=0;recursiveResize=0;outlineConnect=0;portConstraint=eastwest;newEdgeStyle={&quot;edgeStyle&quot;:&quot;elbowEdgeStyle&quot;,&quot;elbow&quot;:&quot;vertical&quot;,&quot;curved&quot;:0,&quot;rounded&quot;:0};" parent="1" vertex="1">
          <mxGeometry x="40" y="40" width="100" height="440" as="geometry" />
        </mxCell>
        <mxCell id="aM9ryv3xv72pqoxQDRHE-2" value="" style="html=1;points=[];perimeter=orthogonalPerimeter;outlineConnect=0;targetShapes=umlLifeline;portConstraint=eastwest;newEdgeStyle={&quot;edgeStyle&quot;:&quot;elbowEdgeStyle&quot;,&quot;elbow&quot;:&quot;vertical&quot;,&quot;curved&quot;:0,&quot;rounded&quot;:0};" parent="aM9ryv3xv72pqoxQDRHE-1" vertex="1">
          <mxGeometry x="45" y="70" width="10" height="340" as="geometry" />
        </mxCell>
        <mxCell id="aM9ryv3xv72pqoxQDRHE-4" value="" style="html=1;points=[];perimeter=orthogonalPerimeter;outlineConnect=0;targetShapes=umlLifeline;portConstraint=eastwest;newEdgeStyle={&quot;edgeStyle&quot;:&quot;elbowEdgeStyle&quot;,&quot;elbow&quot;:&quot;vertical&quot;,&quot;curved&quot;:0,&quot;rounded&quot;:0};rotation=90;" parent="aM9ryv3xv72pqoxQDRHE-1" vertex="1">
          <mxGeometry x="50" y="370" width="10" height="10" as="geometry" />
        </mxCell>
        <mxCell id="aM9ryv3xv72pqoxQDRHE-5" value="Сервер" style="shape=umlLifeline;perimeter=lifelinePerimeter;whiteSpace=wrap;html=1;container=0;dropTarget=0;collapsible=0;recursiveResize=0;outlineConnect=0;portConstraint=eastwest;newEdgeStyle={&quot;edgeStyle&quot;:&quot;elbowEdgeStyle&quot;,&quot;elbow&quot;:&quot;vertical&quot;,&quot;curved&quot;:0,&quot;rounded&quot;:0};" parent="1" vertex="1">
          <mxGeometry x="309" y="40" width="100" height="440" as="geometry" />
        </mxCell>
        <mxCell id="aM9ryv3xv72pqoxQDRHE-6" value="" style="html=1;points=[];perimeter=orthogonalPerimeter;outlineConnect=0;targetShapes=umlLifeline;portConstraint=eastwest;newEdgeStyle={&quot;edgeStyle&quot;:&quot;elbowEdgeStyle&quot;,&quot;elbow&quot;:&quot;vertical&quot;,&quot;curved&quot;:0,&quot;rounded&quot;:0};" parent="aM9ryv3xv72pqoxQDRHE-5" vertex="1">
          <mxGeometry x="45" y="80" width="10" height="250" as="geometry" />
        </mxCell>
        <mxCell id="aM9ryv3xv72pqoxQDRHE-7" value="&lt;font style=&quot;font-size: 10px;&quot;&gt;Отправляет емаил и пароль&lt;br&gt;для авторизации пользователя&lt;/font&gt;" style="html=1;verticalAlign=bottom;endArrow=block;edgeStyle=elbowEdgeStyle;elbow=vertical;curved=0;rounded=0;" parent="1" source="aM9ryv3xv72pqoxQDRHE-2" target="aM9ryv3xv72pqoxQDRHE-6" edge="1">
          <mxGeometry relative="1" as="geometry">
            <mxPoint x="195" y="130" as="sourcePoint" />
            <Array as="points">
              <mxPoint x="180" y="120" />
            </Array>
          </mxGeometry>
        </mxCell>
        <mxCell id="UP4L6Ga3C1EMUJw38-Zz-1" value="База данных" style="shape=umlLifeline;perimeter=lifelinePerimeter;whiteSpace=wrap;html=1;container=0;dropTarget=0;collapsible=0;recursiveResize=0;outlineConnect=0;portConstraint=eastwest;newEdgeStyle={&quot;edgeStyle&quot;:&quot;elbowEdgeStyle&quot;,&quot;elbow&quot;:&quot;vertical&quot;,&quot;curved&quot;:0,&quot;rounded&quot;:0};size=40;" vertex="1" parent="1">
          <mxGeometry x="522" y="40" width="106" height="440" as="geometry" />
        </mxCell>
        <mxCell id="UP4L6Ga3C1EMUJw38-Zz-2" value="" style="html=1;points=[];perimeter=orthogonalPerimeter;outlineConnect=0;targetShapes=umlLifeline;portConstraint=eastwest;newEdgeStyle={&quot;edgeStyle&quot;:&quot;elbowEdgeStyle&quot;,&quot;elbow&quot;:&quot;vertical&quot;,&quot;curved&quot;:0,&quot;rounded&quot;:0};" vertex="1" parent="UP4L6Ga3C1EMUJw38-Zz-1">
          <mxGeometry x="47" y="80" width="10" height="90" as="geometry" />
        </mxCell>
        <mxCell id="UP4L6Ga3C1EMUJw38-Zz-25" value="" style="html=1;points=[];perimeter=orthogonalPerimeter;outlineConnect=0;targetShapes=umlLifeline;portConstraint=eastwest;newEdgeStyle={&quot;edgeStyle&quot;:&quot;elbowEdgeStyle&quot;,&quot;elbow&quot;:&quot;vertical&quot;,&quot;curved&quot;:0,&quot;rounded&quot;:0};" vertex="1" parent="UP4L6Ga3C1EMUJw38-Zz-1">
          <mxGeometry x="47" y="210" width="10" height="80" as="geometry" />
        </mxCell>
        <mxCell id="UP4L6Ga3C1EMUJw38-Zz-26" value="" style="html=1;points=[];perimeter=orthogonalPerimeter;outlineConnect=0;targetShapes=umlLifeline;portConstraint=eastwest;newEdgeStyle={&quot;edgeStyle&quot;:&quot;elbowEdgeStyle&quot;,&quot;elbow&quot;:&quot;vertical&quot;,&quot;curved&quot;:0,&quot;rounded&quot;:0};" vertex="1" parent="UP4L6Ga3C1EMUJw38-Zz-1">
          <mxGeometry x="52" y="258" width="10" height="10" as="geometry" />
        </mxCell>
        <mxCell id="UP4L6Ga3C1EMUJw38-Zz-27" value="" style="edgeStyle=elbowEdgeStyle;rounded=0;orthogonalLoop=1;jettySize=auto;html=1;elbow=horizontal;curved=0;" edge="1" parent="UP4L6Ga3C1EMUJw38-Zz-1" source="UP4L6Ga3C1EMUJw38-Zz-25" target="UP4L6Ga3C1EMUJw38-Zz-26">
          <mxGeometry relative="1" as="geometry">
            <mxPoint x="68" y="260" as="targetPoint" />
            <Array as="points">
              <mxPoint x="88" y="245" />
            </Array>
          </mxGeometry>
        </mxCell>
        <mxCell id="UP4L6Ga3C1EMUJw38-Zz-28" value="Выполняет SQL запрос" style="text;html=1;align=center;verticalAlign=middle;resizable=0;points=[];autosize=1;strokeColor=none;fillColor=none;fontSize=10;" vertex="1" parent="UP4L6Ga3C1EMUJw38-Zz-1">
          <mxGeometry x="81" y="238" width="130" height="30" as="geometry" />
        </mxCell>
        <mxCell id="UP4L6Ga3C1EMUJw38-Zz-3" style="edgeStyle=elbowEdgeStyle;rounded=0;orthogonalLoop=1;jettySize=auto;html=1;elbow=vertical;curved=0;" edge="1" parent="1">
          <mxGeometry relative="1" as="geometry">
            <mxPoint x="370" y="140" as="sourcePoint" />
            <mxPoint x="567.5000000000002" y="140" as="targetPoint" />
            <Array as="points">
              <mxPoint x="370" y="140" />
            </Array>
          </mxGeometry>
        </mxCell>
        <mxCell id="UP4L6Ga3C1EMUJw38-Zz-4" value="Отправляет SQL запрос&lt;br&gt;для поиска комбинации&lt;br&gt;емаила и пароля" style="text;html=1;align=center;verticalAlign=middle;resizable=0;points=[];autosize=1;strokeColor=none;fillColor=none;fontSize=10;" vertex="1" parent="1">
          <mxGeometry x="391" y="95" width="140" height="50" as="geometry" />
        </mxCell>
        <mxCell id="UP4L6Ga3C1EMUJw38-Zz-6" value="&lt;font style=&quot;font-size: 10px;&quot;&gt;Возвращает положительный&lt;br&gt;&amp;nbsp;результат поиска&lt;/font&gt;" style="html=1;verticalAlign=bottom;endArrow=open;dashed=1;endSize=8;edgeStyle=elbowEdgeStyle;elbow=vertical;curved=0;rounded=0;" edge="1" parent="1">
          <mxGeometry x="0.2381" relative="1" as="geometry">
            <mxPoint x="368.5" y="200" as="targetPoint" />
            <Array as="points">
              <mxPoint x="570" y="200" />
            </Array>
            <mxPoint x="498.5" y="200" as="sourcePoint" />
            <mxPoint as="offset" />
          </mxGeometry>
        </mxCell>
        <mxCell id="UP4L6Ga3C1EMUJw38-Zz-8" value="" style="html=1;points=[];perimeter=orthogonalPerimeter;outlineConnect=0;targetShapes=umlLifeline;portConstraint=eastwest;newEdgeStyle={&quot;edgeStyle&quot;:&quot;elbowEdgeStyle&quot;,&quot;elbow&quot;:&quot;vertical&quot;,&quot;curved&quot;:0,&quot;rounded&quot;:0};" vertex="1" parent="1">
          <mxGeometry x="574" y="178" width="10" height="10" as="geometry" />
        </mxCell>
        <mxCell id="UP4L6Ga3C1EMUJw38-Zz-9" value="" style="edgeStyle=elbowEdgeStyle;rounded=0;orthogonalLoop=1;jettySize=auto;html=1;elbow=horizontal;curved=0;" edge="1" parent="1" source="UP4L6Ga3C1EMUJw38-Zz-2" target="UP4L6Ga3C1EMUJw38-Zz-8">
          <mxGeometry relative="1" as="geometry">
            <mxPoint x="590" y="180" as="targetPoint" />
            <Array as="points">
              <mxPoint x="610" y="165" />
            </Array>
          </mxGeometry>
        </mxCell>
        <mxCell id="UP4L6Ga3C1EMUJw38-Zz-22" value="Выполняет SQL запрос" style="text;html=1;align=center;verticalAlign=middle;resizable=0;points=[];autosize=1;strokeColor=none;fillColor=none;fontSize=10;" vertex="1" parent="1">
          <mxGeometry x="603" y="158" width="130" height="30" as="geometry" />
        </mxCell>
        <mxCell id="UP4L6Ga3C1EMUJw38-Zz-23" style="edgeStyle=elbowEdgeStyle;rounded=0;orthogonalLoop=1;jettySize=auto;html=1;elbow=vertical;curved=0;" edge="1" parent="1">
          <mxGeometry relative="1" as="geometry">
            <mxPoint x="370" y="269" as="sourcePoint" />
            <mxPoint x="567.5000000000002" y="269" as="targetPoint" />
            <Array as="points">
              <mxPoint x="503" y="269" />
            </Array>
          </mxGeometry>
        </mxCell>
        <mxCell id="UP4L6Ga3C1EMUJw38-Zz-24" value="Отправляет SQL запрос&lt;br&gt;для поиска информации&lt;br&gt;о пользователе" style="text;html=1;align=center;verticalAlign=middle;resizable=0;points=[];autosize=1;strokeColor=none;fillColor=none;fontSize=10;" vertex="1" parent="1">
          <mxGeometry x="401.5" y="224" width="140" height="50" as="geometry" />
        </mxCell>
        <mxCell id="UP4L6Ga3C1EMUJw38-Zz-29" value="&lt;font style=&quot;font-size: 10px;&quot;&gt;Возвращает информацию&lt;br&gt;о пользователе&lt;/font&gt;" style="html=1;verticalAlign=bottom;endArrow=open;dashed=1;endSize=8;edgeStyle=elbowEdgeStyle;elbow=vertical;curved=0;rounded=0;" edge="1" parent="1">
          <mxGeometry x="0.2381" relative="1" as="geometry">
            <mxPoint x="368.5" y="320" as="targetPoint" />
            <Array as="points">
              <mxPoint x="570" y="320" />
            </Array>
            <mxPoint x="498.5" y="320" as="sourcePoint" />
            <mxPoint as="offset" />
          </mxGeometry>
        </mxCell>
        <mxCell id="UP4L6Ga3C1EMUJw38-Zz-30" value="&lt;font style=&quot;font-size: 10px;&quot;&gt;Возвращает информацию&lt;br&gt;о пользователе&lt;/font&gt;" style="html=1;verticalAlign=bottom;endArrow=open;dashed=1;endSize=8;edgeStyle=elbowEdgeStyle;elbow=vertical;curved=0;rounded=0;" edge="1" parent="1" target="aM9ryv3xv72pqoxQDRHE-2">
          <mxGeometry x="0.1326" relative="1" as="geometry">
            <mxPoint x="100" y="350" as="targetPoint" />
            <Array as="points">
              <mxPoint x="350" y="350" />
            </Array>
            <mxPoint x="310" y="350" as="sourcePoint" />
            <mxPoint as="offset" />
          </mxGeometry>
        </mxCell>
        <mxCell id="UP4L6Ga3C1EMUJw38-Zz-32" value="Переходит в авторизованное &lt;br style=&quot;font-size: 10px;&quot;&gt;состояние и отображает главную &lt;br style=&quot;font-size: 10px;&quot;&gt;страницу пользователя" style="text;html=1;align=center;verticalAlign=middle;resizable=0;points=[];autosize=1;strokeColor=none;fillColor=none;fontSize=10;" vertex="1" parent="1">
          <mxGeometry x="120" y="380" width="180" height="50" as="geometry" />
        </mxCell>
        <mxCell id="UP4L6Ga3C1EMUJw38-Zz-43" value="" style="edgeStyle=elbowEdgeStyle;rounded=0;orthogonalLoop=1;jettySize=auto;html=1;elbow=horizontal;curved=0;" edge="1" parent="1">
          <mxGeometry relative="1" as="geometry">
            <mxPoint x="100" y="415" as="targetPoint" />
            <Array as="points">
              <mxPoint x="126" y="397" />
            </Array>
            <mxPoint x="95" y="397" as="sourcePoint" />
          </mxGeometry>
        </mxCell>
      </root>
    </mxGraphModel>
  </diagram>
</mxfile>
